# xmcd CD database file
#
# Track frame offsets:
#	150
#	3790
#	36740
#	70350
#	102410
#	131230
#	153695
#	179760
#
# Disc length: 2766 seconds
#
# Revision: 13
# Processed by: cddbd v1.5.2PL0 Copyright (c) Steve Scherf et al.
# Submitted via: CDex 1.70beta2
#
DISCID=770acc08
DTITLE=Pat Metheny, B.B. King, Dave Brubeck - Jazz Masters - 100 Ans De Jazz - Concert Midem
DYEAR=1996
DGENRE=Jazz
TTITLE0=Pat Metheny, B.B. King, Dave Brubeck - Introduction
TTITLE1=Pat Metheny and Heath Brothers - Move To The Groove
TTITLE2=Dave Brubeck Quarter - Lover Man
TTITLE3=Dave Brubeck Quarter - Blue Rondo
TTITLE4=Dave Brubeck Quarter - Ol' Bill Basie
TTITLE5=B.B. King and His Orchestra - The Thrill Is Gone
TTITLE6=B.B. King and His Orchestra - Guess Who
TTITLE7=B.B. King and His Orchestra - Payin' The Cost To Be The Boss
EXTD=(C) 1996 Mandarim records Ltd   (P) 1996 Cascade gmbH Germany\n---------------------------------------------------------------------------------------------------------------------------\n\n100 ans de Jazz [#02]\n\n>>>   Pat Metheny, Dave Brubeck Qu
EXTD=artet, B.B. King and his orchestra   <<< YEAR: 1996
EXTT0=
EXTT1=
EXTT2=
EXTT3=
EXTT4=
EXTT5=
EXTT6=
EXTT7=
PLAYORDER=
